<svg xmlns="http://www.w3.org/2000/svg" viewBox="0 0 256 256">
  <rect width="256" height="256" fill="none"/>
  <path d="M128,40a88,88,0,0,0-27.8,171.5c4.4.8,6-1.9,6-4.2V191.8c-24.5,5.3-29.7-11.8-29.7-11.8-4-10.2-9.8-12.9-9.8-12.9-8-5.5.6-5.4.6-5.4,8.9.6,13.6,9.1,13.6,9.1,7.9,13.6,20.8,9.7,25.9,7.4.8-5.7,3.1-9.7,5.6-11.9-19.5-2.2-40.1-9.8-40.1-43.6,0-9.6,3.4-17.4,9-23.6-.9-2.2-3.9-11.1.8-23.2,0,0,7.4-2.4,24.2,9a83.6,83.6,0,0,1,44,0c16.8-11.4,24.2-9,24.2-9,4.7,12.1,1.7,21,.8,23.2,5.6,6.2,9,14,9,23.6,0,33.9-20.6,41.3-40.2,43.5,3.2,2.8,6,8.1,6,16.4v24.3c0,2.4,1.6,5.1,6.1,4.2A88,88,0,0,0,128,40Z" fill="none" stroke="currentColor" stroke-linecap="round" stroke-linejoin="round" stroke-width="8"/>
</svg>
