<svg xmlns="http://www.w3.org/2000/svg" viewBox="0 0 256 256">
  <rect width="256" height="256" fill="none"/>
  <path d="M108,144H40a8,8,0,0,1-8-8V72a8,8,0,0,1,8-8H96a8,8,0,0,1,8,8v88c0,24-16,40-32,40" fill="none" stroke="currentColor" stroke-linecap="round" stroke-linejoin="round" stroke-width="8"/>
  <path d="M224,144H156a8,8,0,0,1-8-8V72a8,8,0,0,1,8-8h56a8,8,0,0,1,8,8v88c0,24-16,40-32,40" fill="none" stroke="currentColor" stroke-linecap="round" stroke-linejoin="round" stroke-width="8"/>
</svg>
